# xmcd
#
# Track frame offsets:
#	150
#	29274
#	60993
#	86822
#	92310
#	121111
#	154047
#	190885
#	218805
#	228389
#	258063
#
# Disc length: 3901 seconds
#
# Revision: 1
# Processed by: cddbd v1.4PL0 Copyright (c) Steve Scherf et al.
# Submitted via: audiograbber 1.81.03
#
DISCID=7e0f3b0b
DTITLE=Walter Trout Band - No More Fish Jokes
DYEAR=1991
DGENRE=Blues
TTITLE0=Dust My Broom
TTITLE1=If You Just Try
TTITLE2=False Alarm
TTITLE3=Mongo's Dream
TTITLE4=Life In The Jungle
TTITLE5=Help Me
TTITLE6=Girl From The North Country
TTITLE7=Victor The Cajun
TTITLE8=Errings On The Table
TTITLE9=Prisoner Of A Dream
TTITLE10=Going Down
EXTD=
EXTT0=
EXTT1=
EXTT2=
EXTT3=
EXTT4=
EXTT5=
EXTT6=
EXTT7=
EXTT8=
EXTT9=
EXTT10=
PLAYORDER=
